<svg xmlns="http://www.w3.org/2000/svg" xmlns:xlink="http://www.w3.org/1999/xlink" width="1920" zoomAndPan="magnify" viewBox="0 0 1440 809.999993" height="1080" preserveAspectRatio="xMidYMid meet" version="1.0"><defs><clipPath id="f7b2d8552c"><path d="M 569 531 L 703.535156 531 L 703.535156 569.1875 L 569 569.1875 Z M 569 531 " clip-rule="nonzero"/></clipPath><clipPath id="4a0d95e431"><path d="M 618 434.1875 L 662 434.1875 L 662 493 L 618 493 Z M 618 434.1875 " clip-rule="nonzero"/></clipPath><clipPath id="702b7d3436"><path d="M 502.535156 467 L 597 467 L 597 545 L 502.535156 545 Z M 502.535156 467 " clip-rule="nonzero"/></clipPath><clipPath id="d16000e43c"><path d="M 606 434.1875 L 652 434.1875 L 652 531 L 606 531 Z M 606 434.1875 " clip-rule="nonzero"/></clipPath></defs><rect x="-144" width="1728" fill="#ffffff" y="-80.999999" height="971.999992" fill-opacity="1"/><rect x="-144" width="1728" fill="#ffffff" y="-80.999999" height="971.999992" fill-opacity="1"/><g clip-path="url(#f7b2d8552c)"><path fill="#a70000" d="M 665.714844 550.460938 C 665.714844 540.136719 674.089844 531.734375 684.46875 531.734375 C 694.808594 531.734375 703.222656 540.097656 703.222656 550.460938 C 703.222656 560.78125 694.847656 569.1875 684.46875 569.1875 C 674.128906 569.1875 665.714844 560.78125 665.714844 550.460938 Z M 588.40625 569.1875 C 598.746094 569.1875 607.160156 560.824219 607.160156 550.460938 C 607.160156 540.136719 598.785156 531.734375 588.40625 531.734375 C 578.027344 531.734375 569.648438 540.097656 569.648438 550.460938 C 569.648438 560.78125 578.066406 569.1875 588.40625 569.1875 Z M 588.40625 569.1875 " fill-opacity="1" fill-rule="nonzero"/></g><path fill="#ff5252" d="M 646.117188 530.414062 C 646.117188 530.414062 644.351562 535.015625 649 535.015625 C 659.5 535.015625 659.421875 541.136719 659.421875 541.136719 L 636.777344 541.136719 L 639.582031 530.414062 Z M 646.117188 530.414062 " fill-opacity="1" fill-rule="nonzero"/><path fill="#ff5252" d="M 660.824219 554.179688 C 656.816406 543.699219 660.863281 531.613281 670.882812 525.773438 C 680.902344 519.929688 693.445312 522.371094 700.621094 530.972656 Z M 660.824219 554.179688 " fill-opacity="1" fill-rule="nonzero"/><path fill="#a70000" d="M 622.953125 517.929688 C 614.414062 533.054688 625.597656 541.136719 625.597656 541.136719 L 649.28125 541.136719 C 652.246094 540.015625 658.820312 533.375 663.109375 523.53125 C 667.394531 513.6875 652.566406 482.800781 652.566406 482.800781 C 658.820312 474.917969 675.132812 478.519531 675.132812 478.519531 L 675.132812 495.285156 L 665.714844 492.644531 L 679.21875 520.25 L 654.210938 550.460938 L 566.683594 550.460938 L 584.796875 517.929688 Z M 622.953125 517.929688 " fill-opacity="1" fill-rule="nonzero"/><path fill="#ffbaba" d="M 675.132812 550.460938 C 675.132812 545.296875 679.300781 541.136719 684.46875 541.136719 C 689.636719 541.136719 693.804688 545.296875 693.804688 550.460938 C 693.804688 555.621094 689.636719 559.78125 684.46875 559.78125 C 679.300781 559.78125 675.132812 555.621094 675.132812 550.460938 Z M 588.40625 559.78125 C 593.574219 559.78125 597.742188 555.621094 597.742188 550.460938 C 597.742188 545.296875 593.574219 541.136719 588.40625 541.136719 C 583.234375 541.136719 579.066406 545.296875 579.066406 550.460938 C 579.066406 555.621094 583.234375 559.78125 588.40625 559.78125 Z M 588.40625 559.78125 " fill-opacity="1" fill-rule="nonzero"/><path fill="#ff5252" d="M 629.203125 517.929688 L 576.222656 517.929688 L 576.222656 507.765625 L 629.203125 507.765625 Z M 591.371094 523.050781 C 577.105469 523.050781 562.074219 535.335938 562.074219 550.460938 L 613.734375 550.460938 C 613.734375 531.894531 610.289062 523.050781 591.371094 523.050781 Z M 643.269531 481.160156 C 639.421875 479.199219 636.296875 459.792969 624.875 460.472656 C 613.414062 461.113281 608.484375 484.761719 607.160156 491.003906 L 624.914062 492.644531 C 626.238281 486.082031 630.164062 477.679688 630.164062 477.679688 C 630.164062 477.679688 632.449219 489 638.21875 490.003906 C 641.585938 490.5625 647.960938 491.363281 652.726562 491.921875 L 653.890625 483.441406 C 650.003906 483 645.355469 482.199219 643.269531 481.160156 Z M 643.269531 481.160156 " fill-opacity="1" fill-rule="nonzero"/><g clip-path="url(#4a0d95e431)"><path fill="#ffbaba" d="M 641.707031 445.667969 C 641.707031 452.03125 636.539062 457.152344 630.207031 457.152344 C 623.832031 457.152344 618.703125 451.992188 618.703125 445.667969 C 618.703125 439.347656 623.832031 434.1875 630.207031 434.1875 C 636.539062 434.1875 641.707031 439.347656 641.707031 445.667969 Z M 660.140625 484.121094 C 660.140625 484.121094 657.335938 483.921875 653.929688 483.480469 L 652.769531 491.960938 C 656.214844 492.363281 658.820312 492.644531 658.820312 492.644531 C 662.105469 489.683594 662.585938 489.042969 660.140625 484.121094 Z M 660.140625 484.121094 " fill-opacity="1" fill-rule="nonzero"/></g><g clip-path="url(#702b7d3436)"><path fill="#ffbaba" d="M 596.621094 507.765625 L 555.183594 507.765625 L 555.183594 467.675781 L 596.621094 467.675781 Z M 570.691406 520.25 C 570.691406 519.691406 570.210938 519.210938 569.648438 519.210938 L 537.75 519.210938 C 537.1875 519.210938 536.707031 519.691406 536.707031 520.25 C 536.707031 520.8125 537.1875 521.292969 537.75 521.292969 L 569.648438 521.292969 C 570.25 521.292969 570.691406 520.8125 570.691406 520.25 Z M 560.191406 528.773438 C 560.191406 528.214844 559.710938 527.734375 559.148438 527.734375 L 510.777344 527.734375 C 510.214844 527.734375 509.734375 528.214844 509.734375 528.773438 C 509.734375 529.332031 510.214844 529.8125 510.777344 529.8125 L 559.148438 529.8125 C 559.710938 529.8125 560.191406 529.375 560.191406 528.773438 Z M 570.691406 543.578125 C 570.691406 543.019531 570.210938 542.539062 569.648438 542.539062 L 529.855469 542.539062 C 529.292969 542.539062 528.8125 543.019531 528.8125 543.578125 C 528.8125 544.136719 529.292969 544.617188 529.855469 544.617188 L 569.648438 544.617188 C 570.25 544.617188 570.691406 544.136719 570.691406 543.578125 Z M 580.109375 537.257812 C 580.109375 536.695312 579.628906 536.214844 579.066406 536.214844 L 543.320312 536.214844 C 542.757812 536.214844 542.277344 536.695312 542.277344 537.257812 C 542.277344 537.816406 542.757812 538.296875 543.320312 538.296875 L 579.066406 538.296875 C 579.667969 538.296875 580.109375 537.816406 580.109375 537.257812 Z M 551.015625 498.246094 C 551.015625 497.683594 550.535156 497.203125 549.972656 497.203125 L 503.882812 497.203125 C 503.324219 497.203125 502.84375 497.683594 502.84375 498.246094 C 502.84375 498.804688 503.324219 499.285156 503.882812 499.285156 L 549.933594 499.285156 C 550.535156 499.285156 551.015625 498.804688 551.015625 498.246094 Z M 549.128906 489.042969 C 549.128906 488.480469 548.648438 488 548.089844 488 L 517.671875 488 C 517.109375 488 516.628906 488.480469 516.628906 489.042969 C 516.628906 489.601562 517.109375 490.082031 517.671875 490.082031 L 548.089844 490.082031 C 548.648438 490.082031 549.128906 489.601562 549.128906 489.042969 Z M 549.128906 489.042969 " fill-opacity="1" fill-rule="nonzero"/></g><g clip-path="url(#d16000e43c)"><path fill="#a70000" d="M 648.921875 441.347656 L 618.703125 446.230469 C 618.703125 446.027344 618.664062 445.867188 618.664062 445.667969 C 618.664062 439.347656 623.832031 434.1875 630.207031 434.1875 C 635.054688 434.1875 639.183594 437.1875 640.867188 441.386719 L 648.71875 440.148438 Z M 607.160156 491.003906 C 605.839844 497.246094 607.480469 507.765625 613.734375 507.765625 L 629.203125 507.765625 C 638.421875 507.765625 641.066406 516.648438 637.097656 530.414062 L 647.277344 530.414062 C 652.207031 511.367188 653.851562 505.765625 647.277344 502.484375 C 640.707031 499.203125 623.59375 499.203125 624.914062 492.644531 Z M 607.160156 491.003906 " fill-opacity="1" fill-rule="nonzero"/></g></svg>